<?xml version="1.0" standalone="no"?>
<!DOCTYPE svg PUBLIC "-//W3C//DTD SVG 20010904//EN"
 "http://www.w3.org/TR/2001/REC-SVG-20010904/DTD/svg10.dtd">
<svg version="1.0" xmlns="http://www.w3.org/2000/svg"
 width="700.000000pt" height="700.000000pt" viewBox="0 0 700.000000 700.000000"
 preserveAspectRatio="xMidYMid meet">
<metadata>
Created by potrace 1.11, written by Peter Selinger 2001-2013
</metadata>
<g transform="translate(0.000000,700.000000) scale(0.100000,-0.100000)"
fill="#000000" stroke="none">
<path d="M3299 6646 c-2 -2 -41 -7 -86 -10 -46 -4 -93 -9 -105 -11 -13 -3 -41
-7 -63 -10 -113 -14 -384 -77 -510 -120 -261 -88 -543 -219 -702 -327 -23 -15
-44 -28 -48 -28 -6 0 -65 -40 -75 -50 -3 -3 -36 -28 -75 -55 -465 -328 -868
-861 -1081 -1432 -39 -102 -109 -332 -117 -378 -3 -17 -9 -48 -15 -70 -11 -41
-19 -82 -28 -145 -2 -19 -9 -60 -14 -90 -17 -97 -25 -220 -25 -420 0 -203 6
-299 31 -454 23 -146 24 -157 46 -246 259 -1093 1030 -1939 2089 -2290 196
-66 498 -129 695 -147 157 -14 635 -6 663 11 3 2 29 7 56 10 104 12 234 39
390 80 6 2 24 6 40 11 267 69 641 243 903 422 185 125 297 219 462 383 400
398 694 924 828 1480 17 69 33 141 36 160 3 19 8 46 11 60 3 14 7 43 10 65 3
22 7 51 10 65 26 135 26 628 0 771 -2 9 -6 40 -10 70 -5 43 -41 226 -59 309
-11 47 -69 235 -90 290 -54 142 -64 167 -91 230 -105 235 -256 484 -417 687
-186 234 -443 471 -693 639 -408 274 -912 464 -1385 519 -30 4 -68 9 -85 11
-38 6 -491 15 -496 10z m521 -606 c36 -6 79 -13 95 -16 17 -2 41 -7 55 -9 14
-3 34 -7 45 -9 130 -26 327 -87 468 -146 353 -147 654 -359 913 -641 76 -83
254 -317 254 -335 0 -4 6 -15 14 -23 33 -37 140 -241 192 -368 84 -201 136
-388 175 -621 32 -190 32 -605 -1 -757 -5 -22 -11 -58 -15 -80 -19 -131 -91
-368 -162 -535 -207 -487 -545 -883 -1003 -1174 -190 -120 -506 -252 -740
-309 -238 -58 -366 -72 -645 -71 -327 2 -546 45 -914 179 -68 25 -239 107
-321 155 -595 344 -1004 871 -1194 1538 -31 109 -68 291 -82 407 -13 107 -11
451 2 555 44 337 128 612 274 897 64 123 180 308 239 380 14 17 40 48 56 69
145 185 377 390 600 531 337 213 752 357 1130 389 39 4 72 8 74 10 9 8 431 -5
491 -16z"/>
<path d="M3452 5007 l-53 -20 5 -71 c17 -258 128 -390 381 -455 22 -6 65 -13
95 -17 30 -4 62 -8 70 -10 8 -1 88 -3 178 -3 l163 -1 -6 -62 c-3 -35 -7 -85
-10 -113 -3 -27 -7 -86 -10 -130 -3 -44 -7 -100 -10 -125 -3 -25 -7 -79 -10
-120 -5 -73 -9 -128 -20 -260 -7 -79 -13 -162 -20 -255 -3 -38 -7 -96 -10
-127 -11 -134 -15 -177 -20 -248 -3 -41 -7 -100 -10 -130 -2 -30 -7 -89 -10
-130 -3 -41 -8 -93 -10 -115 -2 -22 -7 -80 -10 -130 -4 -49 -9 -106 -10 -125
-16 -158 -17 -230 -4 -231 8 0 23 -2 34 -3 147 -20 209 -28 228 -32 10 -2 45
-6 78 -9 33 -4 68 -8 77 -10 9 -1 46 -6 82 -10 36 -4 67 -8 70 -10 13 -8 162
-16 157 -9 -3 5 -8 63 -11 129 -4 66 -9 140 -11 165 -2 25 -7 92 -10 150 -3
58 -8 130 -10 160 -8 101 -15 214 -20 310 -3 52 -7 122 -10 155 -2 33 -7 98
-10 145 -10 156 -15 244 -20 315 -3 39 -8 113 -11 165 -3 52 -7 118 -8 145 -2
28 -7 104 -11 170 -4 66 -8 136 -10 155 -9 98 -16 240 -12 240 3 0 39 7 79 15
40 9 89 18 108 21 19 2 62 8 95 13 62 10 457 7 510 -3 78 -15 146 -22 150 -16
2 3 6 27 9 53 3 25 10 77 16 114 13 91 13 90 -12 96 -13 3 -41 10 -63 16 -22
5 -53 13 -70 17 -45 11 -350 13 -430 4 -38 -5 -98 -11 -132 -15 -34 -3 -72 -8
-84 -10 -12 -3 -43 -7 -68 -10 -25 -3 -62 -8 -81 -10 -19 -3 -73 -10 -120 -15
-47 -6 -98 -13 -115 -15 -16 -2 -50 -7 -75 -10 -25 -3 -56 -7 -69 -10 -32 -6
-229 -18 -301 -19 -315 -1 -495 108 -523 317 -3 21 -7 40 -8 41 -2 2 -28 -6
-57 -17z m1093 -1198 c12 -6 27 -19 34 -30 17 -29 16 -115 -3 -143 -37 -58
-166 -57 -197 1 -22 41 -17 129 8 154 35 36 105 43 158 18z m3 -459 c117 -71
83 -255 -52 -277 -103 -17 -194 88 -165 190 10 34 53 85 84 97 36 15 99 11
133 -10z m-37 -530 c47 -13 72 -51 71 -106 0 -58 -9 -79 -38 -99 -33 -21 -117
-22 -149 -1 -64 42 -48 186 23 202 15 3 32 7 37 9 16 6 18 5 56 -5z"/>
<path d="M1389 4773 c-1 -48 -2 -105 -3 -126 -1 -44 1 -47 46 -51 63 -7 173
-19 188 -21 15 -2 16 -37 5 -225 -2 -30 -4 -65 -4 -77 -1 -22 -2 -23 -126 -19
l-125 4 -1 -52 c-1 -28 -2 -67 -4 -86 -1 -19 -4 -54 -6 -78 -1 -23 1 -46 7
-51 9 -8 120 -20 196 -21 l38 0 -5 -67 c-12 -182 -17 -238 -20 -241 -1 -1 -49
-4 -106 -7 -57 -2 -109 -4 -116 -4 -6 -1 -11 -9 -11 -18 1 -10 -2 -73 -6 -140
l-7 -123 38 -1 c41 -2 98 -6 151 -10 28 -3 35 -9 34 -29 -1 -36 -14 -244 -17
-270 -2 -19 -6 -87 -10 -150 -9 -137 -10 -156 -19 -285 -4 -55 -9 -127 -11
-160 -2 -33 -7 -94 -9 -135 -3 -41 -8 -115 -11 -165 -4 -49 -8 -110 -10 -134
-5 -55 -1 -63 31 -51 13 5 53 14 87 19 153 23 197 26 747 46 525 19 767 65
920 175 164 118 176 319 36 601 l-33 66 -53 -28 c-29 -15 -57 -32 -61 -36 -5
-5 1 -40 15 -80 34 -100 33 -199 -4 -268 -75 -140 -299 -192 -700 -161 -52 4
-117 9 -145 11 -27 2 -88 7 -135 11 -47 4 -133 8 -192 9 -60 1 -110 3 -112 6
-2 2 6 56 19 119 13 63 26 135 30 160 4 25 15 88 26 140 11 52 22 106 24 120
7 44 15 84 19 105 2 11 18 94 35 185 17 91 38 199 46 240 8 41 18 93 21 115 3
22 9 56 14 75 5 19 12 55 15 80 3 25 10 61 15 80 5 19 11 51 14 70 4 29 14 81
40 215 8 43 45 241 50 265 2 14 12 66 21 115 24 126 22 118 46 238 11 60 19
110 17 112 -3 3 -91 10 -263 20 -49 3 -108 8 -130 10 -22 2 -87 7 -145 11 -58
3 -121 7 -140 9 -19 2 -80 7 -135 10 -55 4 -103 9 -107 12 -5 2 -8 -35 -9 -84z"/>
<path d="M2562 3327 c-18 -6 -51 -26 -73 -46 -134 -120 -46 -342 135 -343 60
-1 90 10 135 48 58 48 81 122 65 202 -8 38 -65 107 -107 128 -37 20 -110 25
-155 11z"/>
</g>
</svg>
