<?xml version="1.0" encoding="UTF-8" standalone="no"?>
<!-- Created with Inkscape (http://www.inkscape.org/) -->

<svg
   xmlns:osb="http://www.openswatchbook.org/uri/2009/osb"
   xmlns:dc="http://purl.org/dc/elements/1.1/"
   xmlns:cc="http://creativecommons.org/ns#"
   xmlns:rdf="http://www.w3.org/1999/02/22-rdf-syntax-ns#"
   xmlns:svg="http://www.w3.org/2000/svg"
   xmlns="http://www.w3.org/2000/svg"
   xmlns:sodipodi="http://sodipodi.sourceforge.net/DTD/sodipodi-0.dtd"
   xmlns:inkscape="http://www.inkscape.org/namespaces/inkscape"
   width="400"
   height="400"
   viewBox="0 0 105.83334 105.83334"
   version="1.1"
   id="svg8"
   inkscape:version="0.92.3 (2405546, 2018-03-11)"
   sodipodi:docname="site-logo.svg"
   inkscape:export-filename="C:\Users\lt\Documents\favicon.png"
   inkscape:export-xdpi="95.999985"
   inkscape:export-ydpi="95.999985">
  <defs
     id="defs2">
    <linearGradient
       id="linearGradient6020"
       osb:paint="solid">
      <stop
         style="stop-color:#000000;stop-opacity:1;"
         offset="0"
         id="stop6018" />
    </linearGradient>
  </defs>
  <sodipodi:namedview
     id="base"
     pagecolor="#ffffff"
     bordercolor="#666666"
     borderopacity="1.0"
     inkscape:pageopacity="0.0"
     inkscape:pageshadow="2"
     inkscape:zoom="1"
     inkscape:cx="392"
     inkscape:cy="29.71429"
     inkscape:document-units="px"
     inkscape:current-layer="svg8"
     showgrid="false"
     inkscape:window-width="2256"
     inkscape:window-height="1410"
     inkscape:window-x="-11"
     inkscape:window-y="-11"
     inkscape:window-maximized="1"
     inkscape:snap-page="false"
     units="px" />
  <metadata
     id="metadata5">
    <rdf:RDF>
      <cc:Work
         rdf:about="">
        <dc:format>image/svg+xml</dc:format>
        <dc:type
           rdf:resource="http://purl.org/dc/dcmitype/StillImage" />
        <dc:title></dc:title>
      </cc:Work>
    </rdf:RDF>
  </metadata>
  <path
     style="font-style:normal;font-variant:normal;font-weight:normal;font-stretch:normal;font-size:52.87227249px;line-height:1.25;font-family:Jokerman;-inkscape-font-specification:Jokerman;letter-spacing:0px;word-spacing:0px;fill:#ff5555;fill-opacity:1;stroke:none;stroke-width:0.26306254"
     d="M 52.916668,5.2916534 A 47.624911,47.624911 0 0 0 5.291667,52.916657 47.624911,47.624911 0 0 0 52.916668,100.54167 47.624911,47.624911 0 0 0 100.54167,52.916657 47.624911,47.624911 0 0 0 52.916668,5.2916534 Z m 0,8.9124726 A 38.712649,38.712649 0 0 1 91.629207,52.916657 38.712649,38.712649 0 0 1 52.916668,91.629196 38.712649,38.712649 0 0 1 14.204136,52.916657 38.712649,38.712649 0 0 1 52.916668,14.204126 Z m 0.172782,15.603982 -1.652769,0.567213 v 0.616576 c 0,1.627697 0.296199,2.992316 0.888093,4.093891 0.608337,1.101574 1.528902,1.964948 2.76201,2.589722 0.887841,0.44392 2.006199,0.764346 3.35439,0.961644 1.364643,0.197295 2.942551,0.279711 4.734667,0.246828 l 1.677438,-0.02469 -2.762496,34.748967 11.147247,1.454805 -2.342889,-36.499472 c 1.348191,-0.312385 2.680344,-0.550894 3.995649,-0.715308 1.331757,-0.164413 2.646936,-0.246828 3.945789,-0.246828 1.019376,0 2.06307,0.04945 3.131766,0.148098 1.068696,0.09865 2.145843,0.246499 3.230982,0.443797 l 0.542529,-3.921114 c -0.690543,-0.279504 -1.504467,-0.493286 -2.441628,-0.64126 -0.937161,-0.164413 -1.972611,-0.246828 -3.107079,-0.246828 -2.153817,0 -5.360076,0.320922 -9.61839,0.962136 -4.24188,0.641215 -7.439895,0.961643 -9.593721,0.961643 -2.548423,0 -4.488445,-0.452289 -5.820211,-1.356568 -1.315305,-0.920717 -2.005614,-2.30182 -2.071377,-4.143258 z m -32.085692,2.639088 -0.04939,3.822382 3.822872,0.419606 -0.296195,4.882756 -3.723647,-0.122919 -0.246827,4.143256 3.674775,0.271018 -0.320879,4.63642 -3.526678,0.123413 -0.246339,4.217306 3.427949,0.271017 -1.430613,20.913761 c 0.739867,-0.295947 1.981353,-0.526212 3.724146,-0.690624 1.75923,-0.147969 4.011945,-0.254628 6.757662,-0.320391 3.008776,-0.0657 5.557197,-0.189387 7.645254,-0.370242 2.08806,-0.180864 3.715415,-0.402876 4.882756,-0.665946 2.022295,-0.460359 3.543012,-1.158903 4.562379,-2.096064 1.019367,-0.937161 1.529343,-2.096235 1.529343,-3.477313 0,-0.871398 -0.172575,-1.82493 -0.517842,-2.860741 -0.328833,-1.03581 -0.830574,-2.162412 -1.504665,-3.379077 l -1.849736,1.011501 c 0.263061,0.657657 0.46037,1.274283 0.591896,1.849725 0.131535,0.559008 0.197469,1.084977 0.197469,1.578223 0,1.479726 -0.649598,2.589355 -1.948471,3.329218 -1.29887,0.723429 -3.247149,1.085058 -5.844891,1.085058 -0.575448,0 -1.323443,-0.02475 -2.24416,-0.07407 -0.920721,-0.0657 -2.030347,-0.155916 -3.32922,-0.271008 -1.200221,-0.09866 -2.269138,-0.181071 -3.206296,-0.246825 -0.937162,-0.08226 -1.734605,-0.106938 -2.392261,-0.07407 l -1.011008,0.04941 6.979313,-36.94376 z m 46.710261,15.536845 c 0.591894,0 1.027692,0.148346 1.307196,0.444293 0.295947,0.295945 0.443799,0.739497 0.443799,1.331391 0,0.608334 -0.147852,1.06062 -0.443799,1.356567 -0.279504,0.279496 -0.715302,0.419111 -1.307196,0.419111 -0.591885,0 -1.04418,-0.139615 -1.356561,-0.419111 -0.295947,-0.295947 -0.443808,-0.748233 -0.443808,-1.356567 0,-0.591894 0.147861,-1.035446 0.443808,-1.331391 0.312381,-0.295947 0.764676,-0.444293 1.356561,-0.444293 z m -0.07407,6.856393 c 0.624771,0 1.15074,0.230265 1.578213,0.690624 0.443916,0.443916 0.665946,0.969885 0.665946,1.578222 0,0.641214 -0.22203,1.183662 -0.665946,1.627587 -0.427473,0.443916 -0.953442,0.665937 -1.578213,0.665937 -0.62478,0 -1.158984,-0.222021 -1.6029,-0.665937 -0.443925,-0.443925 -0.665946,-0.986373 -0.665946,-1.627587 0,-0.608337 0.222021,-1.134306 0.665946,-1.578222 0.443916,-0.460359 0.97812,-0.690624 1.6029,-0.690624 z m -27.91775,0.517842 c -0.838512,0 -1.570022,0.303948 -2.194798,0.912276 -0.608332,0.591894 -0.912276,1.290933 -0.912276,2.096559 0,0.838512 0.303944,1.570032 0.912276,2.194803 0.608334,0.608328 1.339845,0.912762 2.194798,0.912762 0.838511,0 1.562273,-0.304434 2.170607,-0.912762 0.608332,-0.624771 0.912276,-1.356291 0.912276,-2.194803 0,-0.805626 -0.312186,-1.504665 -0.936959,-2.096559 -0.608333,-0.608328 -1.323855,-0.912276 -2.145924,-0.912276 z m 27.868376,7.743996 c 0.591894,0 1.02771,0.147843 1.307205,0.44379 0.295947,0.295947 0.44379,0.731754 0.44379,1.307205 0,0.591885 -0.147843,1.035936 -0.44379,1.331884 -0.279495,0.279495 -0.715311,0.419112 -1.307205,0.419112 -0.591885,0 -1.044171,-0.139617 -1.356561,-0.419112 -0.295947,-0.295948 -0.44379,-0.739999 -0.44379,-1.331884 0,-0.575451 0.147843,-1.011258 0.44379,-1.307205 0.31239,-0.295947 0.764676,-0.44379 1.356561,-0.44379 z"
     id="text6128"
     inkscape:connector-curvature="0"
     inkscape:export-filename="C:\Users\lt\Documents\inkscape\site-logo.png"
     inkscape:export-xdpi="95.999985"
     inkscape:export-ydpi="95.999985" />
</svg>
