<?xml version="1.0" encoding="UTF-8" standalone="no"?>
<svg
   xmlns:osb="http://www.openswatchbook.org/uri/2009/osb"
   xmlns:dc="http://purl.org/dc/elements/1.1/"
   xmlns:cc="http://creativecommons.org/ns#"
   xmlns:rdf="http://www.w3.org/1999/02/22-rdf-syntax-ns#"
   xmlns:svg="http://www.w3.org/2000/svg"
   xmlns="http://www.w3.org/2000/svg"
   id="svg8"
   version="1.1"
   viewBox="0 0 210 297"
   height="297mm"
   width="210mm">
  <defs
     id="defs2">
    <linearGradient
       osb:paint="solid"
       id="linearGradient6020">
      <stop
         id="stop6018"
         offset="0"
         style="stop-color:#000000;stop-opacity:1;" />
    </linearGradient>
  </defs>
  <metadata
     id="metadata5">
    <rdf:RDF>
      <cc:Work
         rdf:about="">
        <dc:format>image/svg+xml</dc:format>
        <dc:type
           rdf:resource="http://purl.org/dc/dcmitype/StillImage" />
        <dc:title></dc:title>
      </cc:Work>
    </rdf:RDF>
  </metadata>
  <path
     id="text6128"
     d="M 84.263589,26.886214 A 49.854222,49.854222 0 0 0 34.40927,76.740537 49.854222,49.854222 0 0 0 84.263589,126.59486 49.854222,49.854222 0 0 0 134.11791,76.740537 49.854222,49.854222 0 0 0 84.263589,26.886214 Z m 0,9.329664 A 40.524779,40.524779 0 0 1 124.78825,76.740537 40.524779,40.524779 0 0 1 84.263589,117.26519 40.524779,40.524779 0 0 1 43.73893,76.740537 40.524779,40.524779 0 0 1 84.263589,36.215878 Z m 0.180869,16.334401 -1.730129,0.593764 v 0.645438 c 0,1.70389 0.310062,3.132386 0.929661,4.285525 0.636807,1.153139 1.600467,2.056927 2.891295,2.710947 0.929397,0.464699 2.100109,0.800124 3.511413,1.006658 1.428517,0.206531 3.080287,0.292804 4.956288,0.258382 l 1.755963,-0.02584 -2.891811,36.375554 11.669052,1.52291 -2.45256,-38.208005 c 1.4113,-0.327009 2.80581,-0.576681 4.18269,-0.748792 1.39409,-0.172109 2.77083,-0.258382 4.13049,-0.258382 1.06709,0 2.15964,0.05176 3.27836,0.15503 1.11872,0.103265 2.24629,0.258038 3.38222,0.464572 l 0.56793,-4.104661 c -0.72287,-0.292587 -1.57489,-0.516377 -2.55592,-0.671277 -0.98103,-0.172109 -2.06495,-0.258382 -3.25252,-0.258382 -2.25464,0 -5.61098,0.335944 -10.06863,1.007174 -4.440446,0.671229 -7.788155,1.006657 -10.0428,1.006657 -2.667709,0 -4.698558,-0.473461 -6.09265,-1.420069 -1.376884,-0.963816 -2.0995,-2.409568 -2.168342,-4.337203 z m -33.587618,2.762623 -0.0517,4.001307 4.00182,0.439248 -0.31006,5.111316 -3.89795,-0.128672 -0.25838,4.3372 3.84679,0.283705 -0.3359,4.853451 -3.69176,0.12919 -0.25787,4.41472 3.58841,0.2837 -1.49758,21.892723 c 0.7745,-0.3098 2.0741,-0.55084 3.898472,-0.72295 1.841579,-0.1549 4.199744,-0.266543 7.073987,-0.335383 3.149616,-0.0688 5.817328,-0.19825 8.003127,-0.38757 2.185802,-0.18933 3.889333,-0.42174 5.111316,-0.69712 2.116958,-0.48191 3.708853,-1.21315 4.775936,-2.19418 1.067085,-0.98103 1.600935,-2.19436 1.600935,-3.64009 0,-0.91218 -0.180652,-1.91035 -0.542083,-2.99465 -0.344221,-1.08429 -0.869448,-2.26363 -1.575099,-3.53725 l -1.936316,1.05885 c 0.275375,0.68844 0.481912,1.33393 0.619601,1.93631 0.137689,0.58518 0.206706,1.13577 0.206706,1.6521 0,1.54899 -0.679998,2.71056 -2.039671,3.48506 -1.35967,0.75729 -3.399147,1.13585 -6.118489,1.13585 -0.602385,0 -1.385393,-0.0259 -2.349209,-0.0775 -0.963819,-0.0688 -2.125387,-0.16322 -3.48506,-0.2837 -1.256403,-0.10327 -2.375355,-0.18954 -3.356382,-0.25838 -0.98103,-0.0861 -1.815801,-0.11194 -2.504242,-0.0775 l -1.058333,0.0517 7.306013,-38.673092 z m 48.896758,16.264122 c 0.619602,0 1.075802,0.15529 1.368392,0.46509 0.3098,0.309798 0.46457,0.774113 0.46457,1.393713 0,0.63681 -0.15477,1.11027 -0.46457,1.42007 -0.29259,0.29258 -0.74879,0.43873 -1.368392,0.43873 -0.619596,0 -1.093057,-0.14615 -1.420066,-0.43873 -0.309798,-0.3098 -0.464571,-0.78326 -0.464571,-1.42007 0,-0.6196 0.154773,-1.083915 0.464571,-1.393713 0.327009,-0.3098 0.80047,-0.46509 1.420066,-0.46509 z m -0.07751,7.177343 c 0.654022,0 1.204612,0.24104 1.652092,0.72295 0.4647,0.4647 0.69712,1.01529 0.69712,1.6521 0,0.67123 -0.23242,1.23907 -0.69712,1.70377 -0.44748,0.4647 -0.99807,0.69711 -1.652092,0.69711 -0.654021,0 -1.213236,-0.23241 -1.677934,-0.69711 -0.464699,-0.4647 -0.697117,-1.03254 -0.697117,-1.70377 0,-0.63681 0.232418,-1.1874 0.697117,-1.6521 0.464698,-0.48191 1.023913,-0.72295 1.677934,-0.72295 z m -29.224573,0.54208 c -0.877763,0 -1.643515,0.31818 -2.297536,0.95498 -0.636807,0.6196 -0.954979,1.35136 -0.954979,2.1947 0,0.87776 0.318172,1.64352 0.954979,2.29754 0.63681,0.6368 1.402562,0.95549 2.297536,0.95549 0.877761,0 1.635403,-0.31869 2.272213,-0.95549 0.636807,-0.65402 0.954979,-1.41978 0.954979,-2.29754 0,-0.84334 -0.3268,-1.5751 -0.980818,-2.1947 -0.636808,-0.6368 -1.385824,-0.95498 -2.246374,-0.95498 z m 29.172895,8.10649 c 0.6196,0 1.07581,0.15477 1.36839,0.46457 0.3098,0.3098 0.46457,0.766 0.46457,1.36839 0,0.61959 -0.15477,1.08443 -0.46457,1.39423 -0.29258,0.29258 -0.74879,0.43873 -1.36839,0.43873 -0.619596,0 -1.093058,-0.14615 -1.420067,-0.43873 -0.3098,-0.3098 -0.464571,-0.77464 -0.464571,-1.39423 0,-0.60239 0.154771,-1.05859 0.464571,-1.36839 0.327009,-0.3098 0.800471,-0.46457 1.420067,-0.46457 z"
     style="font-style:normal;font-variant:normal;font-weight:normal;font-stretch:normal;font-size:52.87227249px;line-height:1.25;font-family:Jokerman;-inkscape-font-specification:Jokerman;letter-spacing:0px;word-spacing:0px;fill:#ff5555;fill-opacity:1;stroke:none;stroke-width:0.27537644" />
</svg>
